<mxfile host="app.diagrams.net" modified="2023-05-30T09:15:01.608Z" agent="Mozilla/5.0 (Windows NT 10.0; Win64; x64) AppleWebKit/537.36 (KHTML, like Gecko) Chrome/113.0.0.0 Safari/537.36" etag="vlYNDn4NbZKImtueK0L3" version="21.3.2" type="github">
  <diagram name="第 1 页" id="xVtJOKviFMq02ExK82yl">
    <mxGraphModel dx="1434" dy="708" grid="1" gridSize="10" guides="1" tooltips="1" connect="1" arrows="1" fold="1" page="1" pageScale="1" pageWidth="827" pageHeight="1169" math="0" shadow="0">
      <root>
        <mxCell id="0" />
        <mxCell id="1" parent="0" />
        <mxCell id="36kEexT9LBENIULuebOG-1" value="" style="shape=cube;whiteSpace=wrap;html=1;boundedLbl=1;backgroundOutline=1;darkOpacity=0.05;darkOpacity2=0.1;fillColor=#dae8fc;strokeColor=#6c8ebf;gradientColor=#7ea6e0;fontFamily=宋体;" vertex="1" parent="1">
          <mxGeometry x="160" y="60" width="320" height="100" as="geometry" />
        </mxCell>
        <mxCell id="36kEexT9LBENIULuebOG-2" value="区块链1.0" style="text;html=1;strokeColor=none;fillColor=none;align=center;verticalAlign=middle;whiteSpace=wrap;rounded=0;fontStyle=1;fontSize=14;fontFamily=宋体;" vertex="1" parent="1">
          <mxGeometry x="190" y="90" width="80" height="30" as="geometry" />
        </mxCell>
        <mxCell id="36kEexT9LBENIULuebOG-3" value="比特币、虚拟数据货币" style="text;html=1;strokeColor=none;fillColor=none;align=center;verticalAlign=middle;whiteSpace=wrap;rounded=0;fontFamily=宋体;" vertex="1" parent="1">
          <mxGeometry x="250" y="110" width="180" height="30" as="geometry" />
        </mxCell>
        <mxCell id="36kEexT9LBENIULuebOG-4" value="" style="shape=cube;whiteSpace=wrap;html=1;boundedLbl=1;backgroundOutline=1;darkOpacity=0.05;darkOpacity2=0.1;fillColor=#dae8fc;strokeColor=#6c8ebf;gradientColor=#7ea6e0;fontFamily=宋体;" vertex="1" parent="1">
          <mxGeometry x="160" y="200" width="320" height="100" as="geometry" />
        </mxCell>
        <mxCell id="36kEexT9LBENIULuebOG-5" value="区块链2.0" style="text;html=1;strokeColor=none;fillColor=none;align=center;verticalAlign=middle;whiteSpace=wrap;rounded=0;fontStyle=1;fontSize=14;fontFamily=宋体;" vertex="1" parent="1">
          <mxGeometry x="190" y="230" width="80" height="30" as="geometry" />
        </mxCell>
        <mxCell id="36kEexT9LBENIULuebOG-6" value="以太坊、智能合约" style="text;html=1;strokeColor=none;fillColor=none;align=center;verticalAlign=middle;whiteSpace=wrap;rounded=0;fontFamily=宋体;" vertex="1" parent="1">
          <mxGeometry x="250" y="250" width="180" height="30" as="geometry" />
        </mxCell>
        <mxCell id="36kEexT9LBENIULuebOG-10" value="" style="shape=flexArrow;endArrow=classic;html=1;rounded=0;fillColor=#dae8fc;gradientColor=#7ea6e0;strokeColor=#6c8ebf;exitX=0;exitY=0;exitDx=170;exitDy=100;exitPerimeter=0;fontFamily=宋体;" edge="1" parent="1" source="36kEexT9LBENIULuebOG-1">
          <mxGeometry width="50" height="50" relative="1" as="geometry">
            <mxPoint x="20" y="230" as="sourcePoint" />
            <mxPoint x="330" y="200" as="targetPoint" />
          </mxGeometry>
        </mxCell>
        <mxCell id="36kEexT9LBENIULuebOG-11" value="" style="shape=cube;whiteSpace=wrap;html=1;boundedLbl=1;backgroundOutline=1;darkOpacity=0.05;darkOpacity2=0.1;fillColor=#dae8fc;strokeColor=#6c8ebf;gradientColor=#7ea6e0;" vertex="1" parent="1">
          <mxGeometry x="160" y="340" width="320" height="100" as="geometry" />
        </mxCell>
        <mxCell id="36kEexT9LBENIULuebOG-12" value="区块链3.0" style="text;html=1;strokeColor=none;fillColor=none;align=center;verticalAlign=middle;whiteSpace=wrap;rounded=0;fontStyle=1;fontSize=14;fontFamily=宋体;" vertex="1" parent="1">
          <mxGeometry x="190" y="370" width="80" height="30" as="geometry" />
        </mxCell>
        <mxCell id="36kEexT9LBENIULuebOG-13" value="&lt;font face=&quot;Times New Roman&quot;&gt;HyperLedger Fabric&lt;/font&gt;&lt;font face=&quot;宋体&quot;&gt;、联盟链&lt;/font&gt;" style="text;html=1;strokeColor=none;fillColor=none;align=center;verticalAlign=middle;whiteSpace=wrap;rounded=0;" vertex="1" parent="1">
          <mxGeometry x="250" y="390" width="180" height="30" as="geometry" />
        </mxCell>
        <mxCell id="36kEexT9LBENIULuebOG-14" value="" style="shape=flexArrow;endArrow=classic;html=1;rounded=0;fillColor=#dae8fc;gradientColor=#7ea6e0;strokeColor=#6c8ebf;exitX=0;exitY=0;exitDx=170;exitDy=100;exitPerimeter=0;" edge="1" parent="1">
          <mxGeometry width="50" height="50" relative="1" as="geometry">
            <mxPoint x="330" y="300" as="sourcePoint" />
            <mxPoint x="330" y="340" as="targetPoint" />
          </mxGeometry>
        </mxCell>
      </root>
    </mxGraphModel>
  </diagram>
</mxfile>
